<svg xmlns="http://www.w3.org/2000/svg" width="119.48" height="48.41" viewBox="0 0 119.48 48.41">
  <g id="Sakani_logo" data-name="Sakani logo" transform="translate(-0.001 0)">
    <g id="Group_138" data-name="Group 138">
      <g id="Group_137" data-name="Group 137">
        <g id="Group_136" data-name="Group 136">
          <g id="Group_134" data-name="Group 134">
            <g id="Group_133" data-name="Group 133">
              <g id="Group_132" data-name="Group 132">
                <path id="Path_244" data-name="Path 244" d="M1708.24,155.426a2.629,2.629,0,0,0-1.954.825,2.926,2.926,0,0,0,0,4,2.748,2.748,0,0,0,3.925,0,2.928,2.928,0,0,0,0-4,2.653,2.653,0,0,0-1.972-.825" transform="translate(-1697.763 -112.662)" fill="#00baa4"/>
                <path id="Path_245" data-name="Path 245" d="M1716.96,155.426a2.65,2.65,0,0,0-1.972.825,2.926,2.926,0,0,0,0,4,2.748,2.748,0,0,0,3.925,0,2.879,2.879,0,0,0,0-4,2.63,2.63,0,0,0-1.954-.825" transform="translate(-1699.941 -112.662)" fill="#00baa4"/>
                <path id="Path_246" data-name="Path 246" d="M1751.677,121.738a2.877,2.877,0,0,0,2.9-2.9,2.723,2.723,0,0,0-.843-2.025,2.835,2.835,0,0,0-2.062-.825,2.816,2.816,0,0,0-2.849,2.849,2.834,2.834,0,0,0,.825,2.061,2.759,2.759,0,0,0,2.025.843" transform="translate(-1708.61 -102.788)" fill="#00baa4"/>
                <path id="Path_247" data-name="Path 247" d="M1792.982,122.6h-5.842a48.252,48.252,0,0,1,.467,6.609,37.016,37.016,0,0,1-.234,3.961h-.806a5.154,5.154,0,0,1-2.957-.573,2.91,2.91,0,0,1-.718-2.33V122.6h-5.538v6.932q0,3.924-2.42,3.925a1.784,1.784,0,0,1-1.7-.825,7.271,7.271,0,0,1-.466-3.137v-6.829h-5.843V128.9a6.257,6.257,0,0,1-.646,3.424,2.72,2.72,0,0,1-2.312.842h-4.1c-.375-5.427-2.6-9.313-6.824-11.57l27.086-16.521v-6.7L1745.685,120v4.212q8.119,1.667,8.514,8.961h-13.013V120.461h-5.842v12.707h-7.134v-5.036q0-4.014-1.81-5.968-2.079-2.205-6.811-2.2a40.683,40.683,0,0,0-7.85.7v12.51h-2.062q-4.714,0-6.7-1.684c-2.223-1.883-1.734-5.2-1.734-7.794v-3.228h-6.062v6.254c0,.524.026,1.026.073,1.513q.922,9.49,13.834,9.492h8.227v-13.03a10.369,10.369,0,0,1,1.935-.179,3.264,3.264,0,0,1,2.689.914,5.538,5.538,0,0,1,.7,3.262v9.033h41.24q3.781,0,4.892-2.384.968,2.671,5.018,2.67,4.159,0,5.485-2.562,1.4,2.276,6.308,2.276h7.331a80.218,80.218,0,0,0,.483-8.854,46.936,46.936,0,0,0-.413-6.269" transform="translate(-1695.18 -98.381)" fill="#00baa4"/>
              </g>
            </g>
          </g>
          <g id="Group_135" data-name="Group 135" transform="translate(84.944 0)">
            <path id="Path_248" data-name="Path 248" d="M1808.49,98.381v6.7l34.538,21.336v-6.425Z" transform="translate(-1808.49 -98.381)" fill="#84939e"/>
          </g>
        </g>
      </g>
    </g>
  </g>
</svg>
